<svg width="63" height="107" viewBox="0 0 63 107" fill="none" xmlns="http://www.w3.org/2000/svg">
<g clip-path="url(#clip0_1283_329)">
<path d="M61.9018 1.21582H1.16797V105.895H61.9018V1.21582Z" fill="white"/>
<path d="M60.8042 2.32116V104.79H2.2662V2.32116H60.8042ZM63 0.110596H0.0703125V107H63V0.110596Z" fill="#DDDDDD"/>
<path d="M63 0H0.0703125V10.509H63V0Z" fill="#DDDDDD"/>
<path d="M55.8419 15.2354H6.99219V32.3539H55.8419V15.2354Z" fill="#24364F"/>
<path d="M55.8419 36.8545H6.99219V59.6454H55.8419V36.8545Z" fill="#DDDDDD"/>
<path d="M55.877 64.115H7.02734V86.9059H55.877V64.115Z" fill="#DDDDDD"/>
<path d="M62.9297 95.9473H0V106.456H62.9297V95.9473Z" fill="#DDDDDD"/>
<path d="M16.144 24.2323L15.7751 25.3552H15.3008L16.5041 21.783H17.0575L18.2696 25.3552H17.7821L17.4 24.2323H16.144ZM17.3078 23.8697L16.9609 22.8396C16.8818 22.6097 16.8291 22.3975 16.7764 22.1897C16.7237 22.4019 16.6666 22.6318 16.5964 22.8352L16.2494 23.8697H17.3078Z" fill="white"/>
<path d="M20.9179 21.5884V24.6832C20.9179 24.9131 20.9179 25.1695 20.9179 25.3463H20.5051V24.9042C20.4208 25.0631 20.2936 25.1947 20.1382 25.2838C19.9828 25.373 19.8055 25.4161 19.6268 25.4082C19.0075 25.4082 18.5332 24.8821 18.5332 24.0819C18.5332 23.2286 19.0558 22.7025 19.6795 22.7025C19.8304 22.696 19.9804 22.7288 20.115 22.7978C20.2496 22.8667 20.3643 22.9694 20.448 23.096V21.5884H20.9179ZM20.4524 23.8343C20.4538 23.7673 20.4464 23.7004 20.4305 23.6354C20.398 23.4817 20.3139 23.3441 20.1922 23.2458C20.0706 23.1475 19.9189 23.0946 19.7629 23.096C19.2842 23.096 18.9987 23.5381 18.9987 24.0863C18.9987 24.6345 19.2535 25.0369 19.7541 25.0369C19.913 25.0353 20.0666 24.9793 20.1895 24.878C20.3125 24.7767 20.3975 24.6362 20.4305 24.4798C20.4472 24.4134 20.4546 24.3449 20.4524 24.2764V23.8343Z" fill="white"/>
<path d="M21.8669 22.7866L22.3675 24.2323C22.4477 24.4466 22.5166 24.665 22.5739 24.8867C22.631 24.6744 22.7057 24.4445 22.7891 24.2323L23.2854 22.7866H23.7641L22.7672 25.3553H22.328L21.3574 22.7866H21.8669Z" fill="white"/>
<path d="M24.4281 24.1568C24.4188 24.2753 24.4352 24.3944 24.4761 24.5059C24.5169 24.6174 24.5813 24.7187 24.6648 24.8027C24.7483 24.8867 24.8489 24.9516 24.9597 24.9927C25.0704 25.0339 25.1887 25.0503 25.3064 25.041C25.5489 25.0491 25.7902 25.0038 26.0135 24.9084L26.0926 25.2444C25.8244 25.3573 25.5355 25.4116 25.2449 25.4036C25.0745 25.4144 24.9038 25.3881 24.7445 25.3264C24.5851 25.2647 24.4409 25.169 24.3216 25.046C24.2023 24.9231 24.1109 24.7756 24.0535 24.6137C23.996 24.4518 23.974 24.2794 23.9889 24.1082C23.9889 23.3345 24.4281 22.7244 25.1878 22.7244C25.339 22.7281 25.4876 22.7637 25.6242 22.8289C25.7608 22.8941 25.8823 22.9874 25.9808 23.1029C26.0793 23.2183 26.1527 23.3532 26.1961 23.499C26.2396 23.6447 26.2522 23.7981 26.2331 23.949C26.2367 24.0212 26.2367 24.0935 26.2331 24.1657L24.4281 24.1568ZM25.7895 23.8208C25.8026 23.7274 25.7958 23.6322 25.7695 23.5416C25.7431 23.451 25.6979 23.3672 25.6368 23.2956C25.5757 23.2241 25.5001 23.1664 25.4151 23.1266C25.3301 23.0868 25.2377 23.0657 25.1439 23.0648C24.9531 23.0791 24.7745 23.1644 24.6429 23.3043C24.5114 23.4441 24.4363 23.6283 24.4325 23.8208H25.7895Z" fill="white"/>
<path d="M26.8125 23.591C26.8125 23.286 26.8125 23.0251 26.8125 22.7864H27.2165V23.2904C27.2607 23.1338 27.3529 22.9953 27.4798 22.8945C27.6068 22.7936 27.7621 22.7357 27.9236 22.7289C27.9672 22.7216 28.0118 22.7216 28.0554 22.7289V23.171C28.0028 23.1659 27.9498 23.1659 27.8973 23.171C27.7394 23.177 27.5891 23.241 27.475 23.351C27.3609 23.461 27.2908 23.6093 27.278 23.7679C27.2709 23.8399 27.2709 23.9125 27.278 23.9845V25.355H26.8388L26.8125 23.591Z" fill="white"/>
<path d="M29.2187 22.0527V22.7866H29.8819V23.1448H29.2187V24.5286C29.2187 24.8469 29.3065 25.0282 29.5657 25.0282C29.6562 25.0298 29.7465 25.0179 29.8336 24.9928L29.8555 25.3465C29.7226 25.3916 29.5829 25.4126 29.4427 25.4084C29.3503 25.4131 29.258 25.3983 29.1718 25.3648C29.0855 25.3312 29.0072 25.2798 28.942 25.2138C28.8025 25.0196 28.7399 24.78 28.7664 24.5418V23.1448H28.3711V22.7866H28.7664V22.1809L29.2187 22.0527Z" fill="white"/>
<path d="M30.9168 22.0659C30.9188 22.1049 30.9125 22.1439 30.8983 22.1803C30.8841 22.2167 30.8623 22.2496 30.8345 22.2768C30.8066 22.304 30.7733 22.3249 30.7367 22.3381C30.7002 22.3513 30.6612 22.3565 30.6225 22.3533C30.5854 22.3533 30.5487 22.3458 30.5146 22.3312C30.4804 22.3167 30.4495 22.2954 30.4237 22.2686C30.3979 22.2418 30.3777 22.21 30.3643 22.1752C30.351 22.1404 30.3447 22.1032 30.3458 22.0659C30.3446 22.0272 30.3513 21.9887 30.3654 21.9528C30.3796 21.9168 30.4009 21.8842 30.428 21.8568C30.4552 21.8295 30.4876 21.808 30.5234 21.7938C30.5591 21.7796 30.5973 21.7729 30.6357 21.7741C30.6737 21.7728 30.7116 21.7795 30.7469 21.7938C30.7822 21.8081 30.8141 21.8297 30.8405 21.8572C30.867 21.8847 30.8875 21.9175 30.9006 21.9534C30.9137 21.9894 30.9193 22.0277 30.9168 22.0659ZM30.4029 25.3552V22.7865H30.8421V25.3552H30.4029Z" fill="white"/>
<path d="M31.5722 24.8778C31.7561 24.9923 31.9665 25.0563 32.1826 25.0635C32.5208 25.0635 32.6789 24.8955 32.6789 24.6833C32.6789 24.4711 32.5472 24.3385 32.2046 24.2102C31.7654 24.0467 31.5327 23.7681 31.5327 23.4852C31.5368 23.376 31.5633 23.2688 31.6106 23.1704C31.6578 23.072 31.7248 22.9845 31.8074 22.9135C31.8899 22.8425 31.9861 22.7894 32.09 22.7577C32.1939 22.726 32.3032 22.7163 32.411 22.7292C32.6304 22.7276 32.8465 22.7824 33.039 22.8883L32.9205 23.2288C32.7664 23.1264 32.5868 23.0697 32.4022 23.0652C32.1256 23.0652 31.9631 23.2243 31.9631 23.4189C31.9631 23.6134 32.1168 23.7239 32.4505 23.861C32.8897 24.029 33.1181 24.2545 33.1181 24.6347C33.1181 25.0768 32.7711 25.4039 32.1651 25.4039C31.9153 25.4081 31.6687 25.3472 31.4492 25.2271L31.5722 24.8778Z" fill="white"/>
<path d="M33.9847 24.1568C33.9747 24.2755 33.9905 24.3949 34.0311 24.5068C34.0717 24.6186 34.1361 24.7202 34.2197 24.8044C34.3034 24.8886 34.4043 24.9534 34.5154 24.9943C34.6265 25.0352 34.7452 25.0511 34.863 25.041C35.1041 25.0492 35.344 25.0039 35.5657 24.9084L35.6448 25.2444C35.3768 25.3578 35.0878 25.4121 34.7972 25.4036C34.6271 25.4137 34.4569 25.3869 34.2981 25.3249C34.1393 25.2629 33.9956 25.1672 33.8768 25.0443C33.758 24.9214 33.667 24.7741 33.6098 24.6126C33.5526 24.451 33.5307 24.279 33.5455 24.1082C33.5455 23.3345 33.9847 22.7244 34.7401 22.7244C34.8916 22.7275 35.0407 22.7627 35.1778 22.8276C35.315 22.8925 35.437 22.9858 35.536 23.1012C35.635 23.2167 35.7087 23.3519 35.7524 23.498C35.7961 23.644 35.8088 23.7977 35.7897 23.949C35.796 24.0211 35.796 24.0936 35.7897 24.1657L33.9847 24.1568ZM35.3418 23.8208C35.3548 23.7277 35.3481 23.6329 35.322 23.5427C35.296 23.4524 35.2511 23.3687 35.1905 23.2973C35.1299 23.2258 35.0548 23.1681 34.9704 23.128C34.8859 23.0879 34.7939 23.0664 34.7006 23.0648C34.5094 23.0781 34.3302 23.1632 34.1984 23.3032C34.0666 23.4432 33.9919 23.6279 33.9891 23.8208H35.3418Z" fill="white"/>
<path d="M36.3633 23.5072C36.3633 23.2419 36.3633 23.0209 36.3633 22.8087H36.7717V23.2243C36.8479 23.0782 36.9631 22.9565 37.1043 22.8729C37.2456 22.7893 37.4072 22.7472 37.571 22.7512C37.7304 22.75 37.8862 22.7993 38.0163 22.8921C38.1463 22.985 38.2441 23.1166 38.2957 23.2685C38.3658 23.1372 38.4631 23.0226 38.5811 22.9325C38.7421 22.8086 38.9407 22.7445 39.1433 22.7512C39.4814 22.7512 39.9821 22.9767 39.9821 23.8653V25.3774H39.5737V23.9007C39.5737 23.41 39.3936 23.1137 39.0203 23.1137C38.8941 23.1195 38.773 23.1654 38.6744 23.2449C38.5757 23.3243 38.5046 23.4332 38.4713 23.5559C38.4473 23.63 38.4354 23.7077 38.4362 23.7857V25.3729H37.997V23.8167C37.997 23.41 37.8213 23.1137 37.4656 23.1137C37.3367 23.1189 37.2126 23.1642 37.1103 23.2434C37.0081 23.3226 36.9327 23.4318 36.8947 23.5559C36.8681 23.6295 36.8547 23.7074 36.8552 23.7857V25.3331H36.416L36.3633 23.5072Z" fill="white"/>
<path d="M41.0179 24.1568C41.0079 24.2755 41.0237 24.3949 41.0643 24.5068C41.1049 24.6186 41.1693 24.7202 41.2529 24.8044C41.3366 24.8886 41.4375 24.9534 41.5486 24.9943C41.6597 25.0352 41.7784 25.0511 41.8963 25.041C42.1373 25.0492 42.3772 25.0039 42.5989 24.9084L42.678 25.2444C42.41 25.3578 42.121 25.4121 41.8304 25.4036C41.6603 25.4137 41.4901 25.3869 41.3313 25.3249C41.1725 25.2629 41.0288 25.1672 40.91 25.0443C40.7912 24.9214 40.7002 24.7741 40.643 24.6126C40.5858 24.451 40.5639 24.279 40.5787 24.1082C40.5787 23.3345 41.0179 22.7244 41.7733 22.7244C41.9248 22.7275 42.0739 22.7627 42.211 22.8276C42.3482 22.8925 42.4702 22.9858 42.5692 23.1012C42.6682 23.2167 42.7419 23.3519 42.7856 23.498C42.8293 23.644 42.8421 23.7977 42.8229 23.949C42.8292 24.0211 42.8292 24.0936 42.8229 24.1657L41.0179 24.1568ZM42.375 23.8208C42.388 23.7277 42.3813 23.6329 42.3552 23.5427C42.3292 23.4524 42.2843 23.3687 42.2237 23.2973C42.1631 23.2258 42.088 23.1681 42.0036 23.128C41.9191 23.0879 41.8271 23.0664 41.7338 23.0648C41.5426 23.0781 41.3634 23.1632 41.2316 23.3032C41.0998 23.4432 41.0251 23.6279 41.0223 23.8208H42.375Z" fill="white"/>
<path d="M43.3984 23.5069C43.3984 23.2417 43.3984 23.0206 43.3984 22.8084H43.8113L43.8376 23.2505C43.9214 23.1006 44.0442 22.9766 44.1927 22.8917C44.3413 22.8067 44.51 22.7642 44.6808 22.7686C45.0322 22.7686 45.5812 22.9808 45.5812 23.8606V25.3948H45.1068V23.8739C45.1068 23.4627 44.9531 23.1179 44.5139 23.1179C44.3737 23.1207 44.238 23.1686 44.1266 23.2545C44.0152 23.3403 43.934 23.4598 43.8947 23.5954C43.8722 23.6653 43.8618 23.7386 43.864 23.812V25.355H43.3984V23.5069Z" fill="white"/>
<path d="M46.8613 22.0527V22.7866H47.5244V23.1448H46.8613V24.5286C46.8613 24.8469 46.9535 25.0282 47.2126 25.0282C47.3031 25.0291 47.3933 25.0172 47.4805 24.9928V25.3465C47.3492 25.3916 47.2108 25.4126 47.0721 25.4084C46.9797 25.4134 46.8873 25.3987 46.801 25.3652C46.7147 25.3316 46.6365 25.2801 46.5714 25.2138C46.4303 25.0202 46.3661 24.7806 46.3913 24.5418V23.1448H45.9961V22.7866H46.3913V22.1809L46.8613 22.0527Z" fill="white"/>
</g>
<defs>
<clipPath id="clip0_1283_329">
<rect width="63" height="107" fill="white"/>
</clipPath>
</defs>
</svg>
