<svg width="314" height="529" viewBox="0 0 314 529" fill="none" xmlns="http://www.w3.org/2000/svg">
<g clip-path="url(#clip0_1234_1096)">
<path d="M308.066 6.01086H6.2832V523.536H308.066V6.01086Z" fill="white"/>
<path d="M302.61 11.4753V518.071H11.7393V11.4753H302.61ZM313.522 0.546432H0.828125V529H313.522V0.546432Z" fill="#DDDDDD"/>
<path d="M313.522 0H0.828125V51.9557H313.522V0Z" fill="#DDDDDD"/>
<path d="M277.95 75.3216H35.2188V159.955H277.95V75.3216Z" fill="#24364F"/>
<g filter="url(#filter0_d_1234_1096)">
<path d="M277.95 182.206H35.2188V294.882H277.95V182.206Z" fill="#DDDDDD"/>
</g>
<path d="M278.125 316.98H35.3945V429.657H278.125V316.98Z" fill="#DDDDDD"/>
<path d="M313.172 474.356H0.478516V526.311H313.172V474.356Z" fill="#DDDDDD"/>
<path d="M80.6977 119.802L78.8646 125.354H76.5078L82.4872 107.693H85.2368L91.2598 125.354H88.8375L86.9389 119.802H80.6977ZM86.4807 118.01L84.7567 112.917C84.3639 111.78 84.102 110.731 83.8402 109.704C83.5783 110.753 83.2946 111.89 82.9454 112.895L81.2215 118.01H86.4807Z" fill="white"/>
<path d="M104.418 106.731V122.032C104.418 123.168 104.418 124.436 104.418 125.31H102.367V123.124C101.948 123.91 101.316 124.56 100.543 125.001C99.7712 125.442 98.8902 125.655 98.0022 125.616C94.9252 125.616 92.5684 123.015 92.5684 119.059C92.5684 114.84 95.1652 112.239 98.264 112.239C99.0138 112.207 99.7592 112.37 100.428 112.71C101.097 113.051 101.667 113.559 102.083 114.185V106.731H104.418ZM102.105 117.835C102.112 117.504 102.075 117.173 101.996 116.851C101.835 116.092 101.416 115.411 100.812 114.925C100.207 114.439 99.4538 114.178 98.6786 114.185C96.3 114.185 94.8815 116.37 94.8815 119.081C94.8815 121.791 96.1472 123.78 98.635 123.78C99.4244 123.772 100.188 123.495 100.799 122.995C101.41 122.494 101.832 121.8 101.996 121.026C102.079 120.698 102.115 120.359 102.105 120.021V117.835Z" fill="white"/>
<path d="M109.131 112.655L111.619 119.802C112.017 120.862 112.36 121.941 112.644 123.037C112.928 121.988 113.299 120.851 113.714 119.802L116.18 112.655H118.558L113.605 125.354H111.422L106.6 112.655H109.131Z" fill="white"/>
<path d="M121.855 119.43C121.809 120.016 121.89 120.605 122.094 121.156C122.297 121.708 122.617 122.208 123.031 122.624C123.446 123.039 123.946 123.36 124.496 123.563C125.047 123.767 125.635 123.848 126.22 123.802C127.424 123.842 128.623 123.618 129.733 123.146L130.126 124.807C128.793 125.366 127.358 125.634 125.914 125.594C125.067 125.648 124.219 125.518 123.427 125.213C122.635 124.908 121.919 124.435 121.326 123.827C120.733 123.219 120.279 122.49 119.994 121.689C119.708 120.889 119.599 120.037 119.673 119.19C119.673 115.365 121.855 112.349 125.63 112.349C126.381 112.367 127.12 112.543 127.799 112.865C128.477 113.188 129.081 113.649 129.571 114.22C130.06 114.79 130.425 115.458 130.641 116.178C130.856 116.899 130.919 117.657 130.824 118.403C130.842 118.76 130.842 119.117 130.824 119.474L121.855 119.43ZM128.62 117.769C128.685 117.307 128.651 116.837 128.52 116.389C128.39 115.941 128.165 115.527 127.861 115.173C127.558 114.819 127.182 114.534 126.76 114.337C126.337 114.141 125.878 114.036 125.412 114.032C124.464 114.102 123.576 114.524 122.923 115.215C122.269 115.907 121.896 116.817 121.877 117.769H128.62Z" fill="white"/>
<path d="M133.705 116.633C133.705 115.125 133.705 113.835 133.705 112.655H135.713V115.146C135.932 114.372 136.39 113.687 137.021 113.189C137.652 112.691 138.423 112.404 139.226 112.37C139.443 112.334 139.664 112.334 139.881 112.37V114.556C139.62 114.531 139.356 114.531 139.095 114.556C138.311 114.586 137.564 114.902 136.997 115.446C136.43 115.99 136.082 116.723 136.018 117.507C135.983 117.863 135.983 118.222 136.018 118.578V125.354H133.836L133.705 116.633Z" fill="white"/>
<path d="M145.663 109.026V112.655H148.958V114.425H145.663V121.267C145.663 122.84 146.099 123.736 147.387 123.736C147.837 123.745 148.285 123.686 148.718 123.562L148.827 125.31C148.167 125.533 147.472 125.637 146.776 125.616C146.317 125.64 145.858 125.566 145.43 125.401C145.001 125.235 144.612 124.981 144.288 124.654C143.595 123.694 143.284 122.51 143.415 121.332V114.425H141.451V112.655H143.415V109.66L145.663 109.026Z" fill="white"/>
<path d="M154.107 109.092C154.117 109.285 154.086 109.478 154.015 109.657C153.945 109.837 153.837 110 153.698 110.135C153.56 110.269 153.394 110.372 153.212 110.438C153.031 110.503 152.837 110.528 152.645 110.513C152.461 110.513 152.278 110.476 152.109 110.404C151.939 110.332 151.785 110.226 151.657 110.094C151.529 109.961 151.429 109.804 151.362 109.632C151.296 109.46 151.264 109.276 151.27 109.092C151.264 108.901 151.297 108.71 151.368 108.533C151.438 108.355 151.544 108.193 151.679 108.058C151.814 107.923 151.975 107.817 152.152 107.747C152.33 107.676 152.52 107.643 152.711 107.649C152.899 107.643 153.088 107.676 153.263 107.747C153.438 107.817 153.597 107.924 153.728 108.06C153.86 108.196 153.962 108.358 154.027 108.536C154.092 108.713 154.119 108.903 154.107 109.092ZM151.554 125.354V112.655H153.736V125.354H151.554Z" fill="white"/>
<path d="M157.361 122.993C158.275 123.559 159.321 123.876 160.394 123.911C162.075 123.911 162.86 123.081 162.86 122.032C162.86 120.982 162.206 120.327 160.503 119.693C158.321 118.884 157.165 117.507 157.165 116.108C157.185 115.568 157.317 115.038 157.552 114.552C157.787 114.065 158.12 113.633 158.53 113.282C158.94 112.931 159.418 112.668 159.934 112.512C160.45 112.355 160.993 112.307 161.529 112.37C162.619 112.363 163.693 112.634 164.65 113.157L164.061 114.84C163.295 114.334 162.403 114.054 161.485 114.032C160.111 114.032 159.303 114.818 159.303 115.78C159.303 116.742 160.067 117.288 161.726 117.966C163.908 118.797 165.043 119.911 165.043 121.791C165.043 123.977 163.319 125.594 160.307 125.594C159.066 125.615 157.841 125.314 156.75 124.72L157.361 122.993Z" fill="white"/>
<path d="M169.339 119.43C169.29 120.017 169.368 120.608 169.57 121.161C169.772 121.714 170.092 122.216 170.507 122.632C170.923 123.048 171.424 123.369 171.976 123.571C172.529 123.773 173.118 123.852 173.704 123.802C174.902 123.842 176.094 123.618 177.195 123.146L177.588 124.807C176.257 125.368 174.82 125.637 173.376 125.594C172.532 125.645 171.686 125.512 170.897 125.205C170.107 124.899 169.393 124.426 168.803 123.818C168.213 123.21 167.761 122.482 167.476 121.684C167.192 120.885 167.083 120.035 167.157 119.19C167.157 115.365 169.339 112.349 173.093 112.349C173.846 112.364 174.587 112.538 175.268 112.859C175.949 113.18 176.556 113.641 177.047 114.212C177.539 114.783 177.906 115.451 178.123 116.173C178.34 116.895 178.403 117.655 178.308 118.403C178.339 118.759 178.339 119.118 178.308 119.474L169.339 119.43ZM176.082 117.769C176.147 117.309 176.114 116.84 175.985 116.394C175.855 115.948 175.632 115.534 175.331 115.181C175.03 114.827 174.657 114.542 174.237 114.344C173.817 114.146 173.36 114.039 172.896 114.032C171.947 114.097 171.056 114.518 170.401 115.21C169.747 115.902 169.375 116.816 169.361 117.769H176.082Z" fill="white"/>
<path d="M181.168 116.217C181.168 114.906 181.168 113.813 181.168 112.764H183.197V114.818C183.576 114.096 184.148 113.495 184.85 113.081C185.552 112.668 186.355 112.46 187.169 112.48C187.961 112.474 188.735 112.717 189.382 113.176C190.028 113.635 190.513 114.286 190.77 115.037C191.118 114.388 191.602 113.821 192.188 113.376C192.988 112.763 193.975 112.447 194.982 112.48C196.662 112.48 199.15 113.594 199.15 117.988V125.463H197.12V118.163C197.12 115.736 196.225 114.272 194.371 114.272C193.744 114.301 193.142 114.528 192.652 114.92C192.161 115.313 191.808 115.851 191.643 116.458C191.523 116.825 191.464 117.209 191.468 117.594V125.441H189.286V117.747C189.286 115.737 188.413 114.272 186.645 114.272C186.005 114.298 185.388 114.522 184.88 114.913C184.372 115.305 183.998 115.844 183.808 116.458C183.676 116.822 183.61 117.207 183.612 117.594V125.245H181.43L181.168 116.217Z" fill="white"/>
<path d="M204.3 119.43C204.25 120.017 204.329 120.608 204.531 121.161C204.733 121.714 205.053 122.216 205.468 122.632C205.884 123.048 206.385 123.369 206.937 123.571C207.49 123.773 208.079 123.852 208.665 123.802C209.863 123.842 211.054 123.618 212.156 123.146L212.549 124.807C211.218 125.368 209.781 125.637 208.337 125.594C207.492 125.645 206.647 125.512 205.857 125.205C205.068 124.899 204.354 124.426 203.764 123.818C203.174 123.21 202.721 122.482 202.437 121.684C202.153 120.885 202.044 120.035 202.118 119.19C202.118 115.365 204.3 112.349 208.054 112.349C208.807 112.364 209.548 112.538 210.229 112.859C210.91 113.18 211.517 113.641 212.008 114.212C212.5 114.783 212.867 115.451 213.084 116.173C213.301 116.895 213.364 117.655 213.269 118.403C213.3 118.759 213.3 119.118 213.269 119.474L204.3 119.43ZM211.043 117.769C211.108 117.309 211.075 116.84 210.945 116.394C210.816 115.948 210.593 115.534 210.292 115.181C209.99 114.827 209.618 114.542 209.198 114.344C208.778 114.146 208.321 114.039 207.857 114.032C206.908 114.097 206.017 114.518 205.362 115.21C204.707 115.902 204.336 116.816 204.322 117.769H211.043Z" fill="white"/>
<path d="M216.127 116.217C216.127 114.906 216.127 113.813 216.127 112.764H218.178L218.309 114.95C218.725 114.209 219.335 113.595 220.074 113.175C220.812 112.756 221.65 112.545 222.499 112.567C224.245 112.567 226.973 113.616 226.973 117.966V125.551H224.616V118.032C224.616 115.999 223.852 114.294 221.67 114.294C220.973 114.308 220.299 114.544 219.745 114.969C219.192 115.394 218.788 115.984 218.593 116.655C218.481 117 218.429 117.362 218.44 117.726V125.354H216.127V116.217Z" fill="white"/>
<path d="M233.324 109.026V112.655H236.62V114.425H233.324V121.267C233.324 122.84 233.783 123.736 235.07 123.736C235.52 123.741 235.968 123.682 236.401 123.562V125.31C235.749 125.533 235.061 125.637 234.372 125.616C233.913 125.641 233.454 125.568 233.025 125.403C232.596 125.237 232.207 124.982 231.884 124.654C231.183 123.697 230.864 122.513 230.989 121.332V114.425H229.025V112.655H230.989V109.66L233.324 109.026Z" fill="white"/>
</g>
<defs>
<filter id="filter0_d_1234_1096" x="31.2188" y="182.206" width="250.73" height="120.676" filterUnits="userSpaceOnUse" color-interpolation-filters="sRGB">
<feFlood flood-opacity="0" result="BackgroundImageFix"/>
<feColorMatrix in="SourceAlpha" type="matrix" values="0 0 0 0 0 0 0 0 0 0 0 0 0 0 0 0 0 0 127 0" result="hardAlpha"/>
<feOffset dy="4"/>
<feGaussianBlur stdDeviation="2"/>
<feComposite in2="hardAlpha" operator="out"/>
<feColorMatrix type="matrix" values="0 0 0 0 0 0 0 0 0 0 0 0 0 0 0 0 0 0 0.25 0"/>
<feBlend mode="normal" in2="BackgroundImageFix" result="effect1_dropShadow_1234_1096"/>
<feBlend mode="normal" in="SourceGraphic" in2="effect1_dropShadow_1234_1096" result="shape"/>
</filter>
<clipPath id="clip0_1234_1096">
<rect width="313.043" height="529" fill="white" transform="translate(0.478516)"/>
</clipPath>
</defs>
</svg>
